<svg width="350" height="200" xmlns="http://www.w3.org/2000/svg" viewBox="0 -5 350 172.46053682090172" class="css-1j8o68f"><defs id="SvgjsDefs1116"></defs><g id="SvgjsG1117" featurekey="symbolFeature-0" transform="matrix(1.6802113708445165,0,0,1.6802113708445165,91.33682994118375,-39.56362667391506)" fill="#ffdf00"><path xmlns="http://www.w3.org/2000/svg" d="M89.979,29.191c-4.384-5.559-11.139-8.62-19.019-8.62c-7.879,0-15.941,3.062-22.703,8.62  c-0.937,0.77-1.828,1.579-2.681,2.415l-29.157,4.053l26.452-1.121c-1.245,1.491-2.366,3.057-3.354,4.681L9.604,43.377l28.295-1.2  c-0.775,1.587-1.434,3.214-1.953,4.873L6.864,51.093l28.332-1.2c-0.008,0.036-0.018,0.071-0.025,0.108  c-0.342,1.599-0.545,3.176-0.627,4.723L5.156,58.81l29.382-1.245c0.088,1.725,0.336,3.402,0.755,5.011L6.864,66.527l29.321-1.244  c0.722,1.812,1.675,3.515,2.848,5.081l-27.904,3.88l30.187-1.28c4.322,4.186,10.274,6.465,17.065,6.465  c7.879,0,15.941-3.061,22.702-8.619S92.49,57.861,94.17,50C95.851,42.14,94.362,34.75,89.979,29.191z M90.092,49.133  c-1.482,6.945-5.626,13.504-11.662,18.468c-6.015,4.945-13.135,7.669-20.05,7.669c-6.574,0-12.165-2.497-15.741-7.031  c-3.605-4.571-4.809-10.74-3.392-17.37c1.484-6.945,5.627-13.504,11.662-18.468c6.017-4.945,13.137-7.67,20.051-7.67  c6.575,0,12.165,2.498,15.741,7.032C90.306,36.333,91.51,42.502,90.092,49.133z"></path><path xmlns="http://www.w3.org/2000/svg" d="M44.602,49.733l7.211-3.829c0.345-0.184,0.666-0.46,0.921-0.777c0.257-0.319,0.447-0.68,0.535-1.037l1.829-7.437  c0.176-0.713-0.102-1.247-0.685-1.32l-4.33-0.545c-3.721,3.471-6.629,7.813-8.187,12.59l1.119,2.156  C43.27,50.022,43.909,50.103,44.602,49.733z"></path><path xmlns="http://www.w3.org/2000/svg" d="M53.9,60.401c-0.217-0.25-0.507-0.439-0.835-0.529l-6.832-1.838c-0.657-0.178-1.32,0.089-1.643,0.655l-2.321,4.087  c1.659,3.76,4.529,6.771,8.282,8.621l3.739-1.495c0.604-0.243,0.959-0.864,0.875-1.542l-0.86-7.054  C54.264,60.967,54.118,60.652,53.9,60.401z"></path><path xmlns="http://www.w3.org/2000/svg" d="M60.947,31.845l5.788,3.559c0.277,0.171,0.63,0.256,1.001,0.256c0.37,0,0.757-0.085,1.108-0.256l7.31-3.559  c0.701-0.343,1.095-0.948,0.972-1.502l-0.589-2.675c-2.087-0.709-4.388-1.095-6.859-1.095s-4.937,0.386-7.328,1.095l-1.732,2.675  C60.259,30.896,60.392,31.502,60.947,31.845z"></path><path xmlns="http://www.w3.org/2000/svg" d="M81.312,35.21c-0.612,0.072-1.112,0.602-1.24,1.31l-1.34,7.374c-0.064,0.354-0.027,0.712,0.091,1.028  c0.119,0.314,0.319,0.588,0.585,0.771l5.526,3.798c0.532,0.365,1.201,0.286,1.657-0.198l2.023-2.14  c0.482-4.735-0.562-9.042-2.779-12.482L81.312,35.21z"></path><path xmlns="http://www.w3.org/2000/svg" d="M79.673,58.034l-7.619,1.838c-0.365,0.09-0.736,0.279-1.061,0.529c-0.324,0.251-0.604,0.565-0.792,0.905l-3.876,7.054  c-0.371,0.678-0.284,1.299,0.219,1.542l3.097,1.495c4.543-1.85,8.702-4.859,11.968-8.621l-0.573-4.087  C80.955,58.123,80.404,57.856,79.673,58.034z"></path><path xmlns="http://www.w3.org/2000/svg" d="M69.436,55.871l4.336-8.036c0.415-0.771,0.32-1.617-0.233-2.093l-5.792-4.968c-0.278-0.238-0.642-0.357-1.027-0.357  c-0.388,0-0.801,0.119-1.18,0.357l-7.914,4.968c-0.761,0.476-1.216,1.322-1.128,2.093l0.898,8.036  c0.086,0.771,0.695,1.294,1.51,1.294h4.233h4.235C68.188,57.165,69.021,56.643,69.436,55.871z"></path></g><g id="SvgjsG1118" featurekey="nameFeature-0" transform="matrix(1.632767186459171,0,0,1.632767186459171,-1.959320701607412,99.40679843387434)" fill="#ffffff"><path d="M4.92 40 l-3.72 -3.72 l0 -5.24 l5.04 0 l0 3.16 l0.76 0.76 l4.08 0 l0.76 -0.76 l0 -4.92 l-0.76 -0.76 l-6.16 0 l-3.72 -3.72 l0 -9.08 l3.72 -3.72 l8.24 0 l3.72 3.72 l0 5.24 l-5.04 0 l0 -3.16 l-0.76 -0.76 l-4.08 0 l-0.76 0.76 l0 4.92 l0.76 0.76 l6.16 0 l3.72 3.72 l0 9.08 l-3.72 3.72 l-8.24 0 z M26.632000000000005 40 l0 -4.48 l0.84 -0.56 l0 -17.92 l-0.84 0 l-0.56 0.84 l-4.48 0 l0 -5.88 l16.8 0 l0 5.88 l-4.48 0 l-0.56 -0.84 l-0.84 0 l0 17.92 l0.84 0.56 l0 4.48 l-6.72 0 z M42.304 40 l0 -4.48 l0.84 -0.56 l3.64 -17.92 l-0.84 -0.56 l0 -4.48 l10.64 0 l0 4.48 l-0.84 0.56 l3.64 17.92 l0.84 0.56 l0 4.48 l-4.96 0 l-1.24 -6.16 l-5.52 0 l-1.24 6.16 l-4.96 0 z M49.544000000000004 28.8 l3.44 0 l-1.72 -8.56 z M69.176 40 l0 -4.48 l0.84 -0.56 l0 -17.92 l-0.84 0 l-0.56 0.84 l-4.48 0 l0 -5.88 l16.8 0 l0 5.88 l-4.48 0 l-0.56 -0.84 l-0.84 0 l0 17.92 l0.84 0.56 l0 4.48 l-6.72 0 z M89.36800000000001 40 l-3.72 -3.72 l0 -5.24 l5.04 0 l0 3.16 l0.76 0.76 l4.08 0 l0.76 -0.76 l0 -4.92 l-0.76 -0.76 l-6.16 0 l-3.72 -3.72 l0 -9.08 l3.72 -3.72 l8.24 0 l3.72 3.72 l0 5.24 l-5.04 0 l0 -3.16 l-0.76 -0.76 l-4.08 0 l-0.76 0.76 l0 4.92 l0.76 0.76 l6.16 0 l3.72 3.72 l0 9.08 l-3.72 3.72 l-8.24 0 z M121.312 41.68 l0 -1.68 l-2.04 0 l-3.72 -3.72 l0 -20.56 l3.72 -3.72 l9.08 0 l3.72 3.72 l0 20.56 l-3.72 3.72 l-2 0 l0 1.68 l-5.04 0 z M121.352 34.96 l4.92 0 l0.76 -0.76 l0 -16.4 l-0.76 -0.76 l-4.92 0 l-0.76 0.76 l0 16.4 z M141.344 40 l-3.72 -3.72 l0 -19.24 l-0.84 -0.56 l0 -4.48 l6.72 0 l0 4.48 l-0.84 0.56 l0 17.16 l0.76 0.76 l4.64 0 l0.76 -0.76 l0 -17.16 l-0.84 -0.56 l0 -4.48 l6.72 0 l0 4.48 l-0.84 0.56 l0 19.24 l-3.72 3.72 l-8.8 0 z M159.416 40 l0 -4.48 l0.84 -0.56 l0 -17.92 l-0.84 -0.56 l0 -4.48 l14.56 0 l0 5.88 l-4.48 0 l-0.56 -0.84 l-3.64 0 l0 6.44 l6.44 0 l0 5.04 l-6.44 0 l0 6.44 l3.64 0 l0.56 -0.84 l4.48 0 l0 5.88 l-14.56 0 z M188.888 40 l0 -4.48 l0.72 -0.48 l-1.4 -5.4 l-3.64 0 l0 5.32 l0.84 0.56 l0 4.48 l-6.72 0 l0 -4.48 l0.84 -0.56 l0 -17.92 l-0.84 -0.56 l0 -4.48 l12.8 0 l3.72 3.72 l0 10.2 l-2.16 2.2 l1.72 6.68 l1 0.72 l0 4.48 l-6.88 0 z M184.568 24.6 l4.84 0 l0.76 -0.76 l0 -6.04 l-0.76 -0.76 l-4.84 0 l0 7.56 z M204.08 40 l0 -4.48 l0.84 -0.56 l0 -5.36 l-4.44 -12.36 l-1.16 -0.76 l0 -4.48 l4.6 0 l3.52 9.72 l3.52 -9.72 l4.6 0 l0 4.48 l-1.16 0.76 l-4.44 12.28 l0 5.48 l0.84 0.52 l0 4.48 l-6.72 0 z"></path></g></svg>